# xmcd
# Copyright (C) 1995-1998 Ti Kan
#
# Track frame offsets:
#       150
#       13870
#       30572
#       44357
#
# Disc length: 769 seconds
#
# Revision: 0
# Processed by: cddbd v1.5.2PL0 Copyright (c) Steve Scherf et al.
# Submitted via: CD-Transfer v1.0
#
DISCID=2902ff04
DTITLE=Kapfer and Kapfer - 
DYEAR=1900
DGENRE=
TTITLE0=Glaub An Dein Ziel
TTITLE1=Ein Neues Leben
TTITLE2=Hallo Partner
TTITLE3=Ich Bin Wieder Frei
EXTD=
EXTT0=
EXTT1=
EXTT2=
EXTT3=
PLAYORDER=
